<svg width="400" height="400" viewBox="0 0 400 400" fill="none" xmlns="http://www.w3.org/2000/svg">
<g clip-path="url(#clip0_145_45)">
<rect width="400" height="400" fill="#60B5FF"/>
<path d="M121.6 312V88.5H194.5C218.1 88.5 238.6 93.3 256 102.9C273.6 112.3 287.2 125.4 296.8 142.2C306.4 158.8 311.2 178.1 311.2 200.1C311.2 221.9 306.4 241.3 296.8 258.3C287.2 275.1 273.6 288.3 256 297.9C238.6 307.3 218.1 312 194.5 312H121.6ZM162.4 276H195.4C210.6 276 223.7 272.9 234.7 266.7C245.9 260.3 254.6 251.5 260.8 240.3C267 228.9 270.1 215.5 270.1 200.1C270.1 184.5 267 171.1 260.8 159.9C254.6 148.7 245.9 140 234.7 133.8C223.7 127.6 210.6 124.5 195.4 124.5H162.4V276Z" fill="#FAFAFA"/>
<g clip-path="url(#clip1_145_45)">
<path d="M335.179 80.9815C334.997 80.5379 334.709 80.1454 334.341 79.838C333.973 79.5306 333.535 79.3175 333.066 79.2171L319.8 76.3848L319.426 58.8178C319.415 58.1866 319.202 57.5757 318.818 57.0746C318.434 56.5736 317.899 56.2087 317.293 56.0336C316.686 55.8586 316.04 55.8824 315.448 56.1018C314.856 56.3211 314.35 56.7243 314.004 57.2524L291.839 91.0239C291.575 91.4252 291.414 91.8846 291.368 92.3625C291.322 92.8403 291.393 93.3221 291.576 93.7662C291.758 94.2103 292.046 94.6033 292.414 94.9111C292.782 95.2189 293.22 95.4322 293.69 95.5326L306.956 98.3649L307.331 115.939C307.342 116.57 307.555 117.181 307.939 117.682C308.323 118.183 308.858 118.548 309.464 118.723C310.071 118.898 310.717 118.875 311.309 118.655C311.901 118.436 312.407 118.033 312.753 117.505L334.918 83.7332C335.183 83.3306 335.345 82.8694 335.39 82.3898C335.436 81.9102 335.364 81.4267 335.179 80.9815ZM313.034 106.302L312.814 95.9103C312.8 95.2452 312.562 94.6044 312.138 94.0917C311.714 93.5789 311.129 93.2244 310.479 93.0854L299.146 90.665L313.723 68.4546L313.943 78.8467C313.957 79.5118 314.195 80.1527 314.619 80.6654C315.043 81.1781 315.628 81.5327 316.278 81.6716L327.611 84.092L313.034 106.302Z" fill="#FAFAFA"/>
</g>
<g clip-path="url(#clip2_145_45)">
<path d="M41.0972 186.929L33.2542 191.968L39.6258 198.773C39.8375 198.996 40.0031 199.258 40.113 199.545C40.2229 199.832 40.2749 200.137 40.2661 200.444C40.2573 200.751 40.1878 201.053 40.0616 201.333C39.9354 201.613 39.755 201.865 39.5309 202.075C39.3068 202.285 39.0433 202.449 38.7557 202.556C38.468 202.664 38.162 202.714 37.8551 202.702C37.5482 202.691 37.2466 202.619 36.9676 202.491C36.6887 202.362 36.4379 202.18 36.2298 201.954L27.9506 193.111C27.7174 192.862 27.5419 192.565 27.4363 192.24C27.3308 191.916 27.2979 191.572 27.34 191.234C27.382 190.895 27.498 190.57 27.6797 190.281C27.8614 189.993 28.1044 189.747 28.3914 189.563L38.5827 183.014C39.1018 182.687 39.7293 182.577 40.3285 182.711C40.9278 182.844 41.4501 183.208 41.7819 183.724C42.1136 184.241 42.2277 184.868 42.0995 185.468C41.9713 186.068 41.611 186.593 41.0972 186.929ZM74.4443 195.284L66.1652 186.441C65.9571 186.215 65.7063 186.033 65.4273 185.904C65.1484 185.776 64.8468 185.704 64.5399 185.693C64.233 185.681 63.9269 185.731 63.6393 185.839C63.3517 185.946 63.0882 186.11 62.864 186.32C62.6399 186.529 62.4596 186.782 62.3334 187.062C62.2072 187.342 62.1377 187.644 62.1289 187.951C62.12 188.258 62.1721 188.563 62.282 188.85C62.3919 189.137 62.5574 189.399 62.7692 189.622L69.1407 196.427L61.2977 201.466C61.038 201.63 60.8134 201.843 60.6366 202.094C60.4599 202.346 60.3347 202.629 60.2681 202.929C60.2016 203.229 60.195 203.539 60.2488 203.841C60.3027 204.143 60.4158 204.432 60.5818 204.691C60.7478 204.949 60.9632 205.172 61.2158 205.347C61.4683 205.521 61.753 205.644 62.0533 205.708C62.3536 205.773 62.6636 205.777 62.9655 205.72C63.2674 205.664 63.5552 205.549 63.8123 205.381L74.0036 198.832C74.2906 198.648 74.5335 198.402 74.7152 198.114C74.8969 197.825 75.0129 197.5 75.055 197.161C75.097 196.823 75.0641 196.479 74.9586 196.155C74.8531 195.83 74.6775 195.533 74.4443 195.284ZM60.5161 175.959C60.244 175.82 59.9471 175.736 59.6425 175.711C59.3379 175.687 59.0315 175.723 58.7407 175.817C58.45 175.911 58.1807 176.062 57.9481 176.26C57.7156 176.458 57.5243 176.7 57.3854 176.973L40.865 209.305C40.5848 209.855 40.5342 210.493 40.7244 211.08C40.9145 211.666 41.3299 212.154 41.8791 212.434C42.12 212.559 42.3812 212.64 42.6505 212.673C43.1245 212.732 43.6052 212.643 44.0272 212.42C44.4493 212.196 44.7923 211.848 45.0096 211.422L61.5299 179.09C61.669 178.817 61.7531 178.521 61.7774 178.216C61.8017 177.911 61.7657 177.605 61.6716 177.314C61.5774 177.023 61.4269 176.754 61.2287 176.522C61.0304 176.289 60.7883 176.098 60.5161 175.959Z" fill="#FAFAFA"/>
</g>
<path d="M295.612 320.975C295.555 320.042 295.159 319.163 294.498 318.502C293.837 317.841 292.958 317.445 292.025 317.388C289.512 317.241 283.096 317.468 277.769 322.793L277.074 323.484H266.233C265.73 323.483 265.232 323.581 264.767 323.774C264.303 323.966 263.881 324.249 263.526 324.606L256.952 331.177C256.448 331.68 256.095 332.314 255.932 333.006C255.769 333.699 255.802 334.423 256.027 335.098C256.253 335.773 256.662 336.372 257.209 336.827C257.756 337.282 258.419 337.576 259.124 337.675L266.233 338.667L274.333 346.767L275.327 353.884C275.423 354.589 275.716 355.254 276.172 355.801C276.628 356.349 277.228 356.757 277.905 356.98C278.298 357.109 278.71 357.174 279.124 357.172C279.626 357.172 280.123 357.072 280.586 356.879C281.049 356.687 281.469 356.404 281.823 356.048L288.396 349.474C288.752 349.119 289.035 348.697 289.227 348.233C289.419 347.768 289.517 347.27 289.516 346.767V335.926L290.205 335.239C295.532 329.904 295.759 323.484 295.612 320.975ZM266.547 328.078H272.48L266.499 334.065L261.287 333.338L266.547 328.078ZM281.017 326.043C282.328 324.722 283.892 323.679 285.615 322.976C287.338 322.273 289.186 321.925 291.047 321.953C291.076 323.815 290.728 325.663 290.025 327.387C289.322 329.111 288.278 330.675 286.955 331.985L276.5 342.434L270.566 336.5L281.017 326.043ZM284.922 346.453L279.66 351.715L278.933 346.503L284.922 340.52V346.453ZM271.141 350.664C269.473 352.932 266.128 355.641 259.656 355.641C259.047 355.641 258.463 355.399 258.032 354.968C257.601 354.537 257.359 353.953 257.359 353.344C257.359 346.867 260.062 343.521 262.336 341.859C262.577 341.657 262.856 341.507 263.157 341.417C263.458 341.327 263.775 341.3 264.087 341.337C264.399 341.375 264.7 341.476 264.971 341.634C265.242 341.792 265.478 342.005 265.664 342.258C265.85 342.511 265.983 342.8 266.053 343.106C266.123 343.413 266.129 343.73 266.071 344.039C266.014 344.348 265.893 344.642 265.718 344.902C265.542 345.163 265.315 345.384 265.05 345.554C263.925 346.382 262.625 347.946 262.145 350.855C265.056 350.375 266.618 349.075 267.446 347.95C267.616 347.685 267.837 347.458 268.098 347.282C268.358 347.107 268.652 346.986 268.961 346.929C269.27 346.871 269.587 346.877 269.894 346.947C270.2 347.017 270.489 347.15 270.742 347.336C270.995 347.522 271.208 347.758 271.366 348.029C271.524 348.3 271.625 348.601 271.663 348.913C271.7 349.225 271.673 349.542 271.583 349.843C271.493 350.144 271.343 350.423 271.141 350.664Z" fill="#FAFAFA"/>
</g>
<defs>
<clipPath id="clip0_145_45">
<rect width="400" height="400" rx="200" fill="white"/>
</clipPath>
<clipPath id="clip1_145_45">
<rect width="63" height="63" fill="white" transform="translate(277 61.6666) rotate(-9.74776)"/>
</clipPath>
<clipPath id="clip2_145_45">
<rect width="49.6331" height="49.6331" fill="white" transform="translate(29.6297 166.511) rotate(7.08163)"/>
</clipPath>
</defs>
</svg>
